HIERARCHY
ROOT hip
{
  OFFSET 0.00112043 5.09927 -9.65472
  CHANNELS 6 Xposition Yposition Zposition Zrotation Xrotation Yrotation
  JOINT abdomen
  {
    OFFSET 0 -1.186 -1.5018
    CHANNELS 3 Zrotation Xrotation Yrotation
    JOINT abdomen2
    {
      OFFSET 0 9.964 0.2134
      CHANNELS 3 Zrotation Xrotation Yrotation
      JOINT chest
      {
        OFFSET 0 13.134 -3.2573
        CHANNELS 3 Zrotation Xrotation Yrotation
        JOINT neck
        {
          OFFSET 0 20.686 -1.6905
          CHANNELS 3 Zrotation Xrotation Yrotation
          JOINT head
          {
            OFFSET 0 7.238 -0.1237
            CHANNELS 3 Zrotation Xrotation Yrotation
            End Site
            {
              OFFSET 0 0 0
            }
          }
        }
        JOINT lCollar
        {
          OFFSET 1.7069 20.075 5.0056
          CHANNELS 3 Zrotation Xrotation Yrotation
          JOINT lShldr
          {
            OFFSET 13.6458 -0.047 -4.849
            CHANNELS 3 Zrotation Xrotation Yrotation
            JOINT lForeArm
            {
              OFFSET 28.3255 -0.9759 2.2888
              CHANNELS 3 Zrotation Xrotation Yrotation
              JOINT lHand
              {
                OFFSET 22.1583 -0.53 10.8316
                CHANNELS 3 Zrotation Xrotation Yrotation
                JOINT lThumb1
                {
                  OFFSET 0.786 0.112 2.5817
                  CHANNELS 3 Zrotation Xrotation Yrotation
                  JOINT lThumb2
                  {
                    OFFSET 0.3601 -0.878 4.2331
                    CHANNELS 3 Zrotation Xrotation Yrotation
                    JOINT lThumb2_End
                    {
                      OFFSET 1.8127 -1.216 2.2227
                      CHANNELS 3 Zrotation Xrotation Yrotation
                      End Site
                      {
                        OFFSET 0.0181 -0.0122 0.0222
                      }
                    }
                  }
                }
                JOINT lCarpal1
                {
                  OFFSET 0.9571 1.114 1.7695
                  CHANNELS 3 Zrotation Xrotation Yrotation
                  JOINT lIndex1
                  {
                    OFFSET 4.1246 0.487 4.1451
                    CHANNELS 3 Zrotation Xrotation Yrotation
                    JOINT lIndex2
                    {
                      OFFSET 3.4052 -1.454 2.7682
                      CHANNELS 3 Zrotation Xrotation Yrotation
                      JOINT lIndex2_End
                      {
                        OFFSET 1.4531 -1.795 1.2713
                        CHANNELS 3 Zrotation Xrotation Yrotation
                        End Site
                        {
                          OFFSET 0.0145 -0.0179 0.0127
                        }
                      }
                    }
                  }
                  JOINT lMid1
                  {
                    OFFSET 5.6954 0.21 2.1184
                    CHANNELS 3 Zrotation Xrotation Yrotation
                    JOINT lMid2
                    {
                      OFFSET 3.9766 -1.54 2.3863
                      CHANNELS 3 Zrotation Xrotation Yrotation
                      JOINT lMid2_End
                      {
                        OFFSET 1.4042 -1.926 1.125
                        CHANNELS 3 Zrotation Xrotation Yrotation
                        End Site
                        {
                          OFFSET 0.014 -0.0193 0.0113
                        }
                      }
                    }
                  }
                }
                JOINT lCarpal2
                {
                  OFFSET 2.0956 0.66 -0.3894
                  CHANNELS 3 Zrotation Xrotation Yrotation
                  JOINT lRing1
                  {
                    OFFSET 5.0395 -0.09 2.4971
                    CHANNELS 3 Zrotation Xrotation Yrotation
                    JOINT lRing2
                    {
                      OFFSET 3.7921 -1.552 1.4806
                      CHANNELS 3 Zrotation Xrotation Yrotation
                      JOINT lRing2_End
                      {
                        OFFSET 1.4655 -1.808 0.9609
                        CHANNELS 3 Zrotation Xrotation Yrotation
                        End Site
                        {
                          OFFSET 0.0147 -0.0181 0.0096
                        }
                      }
                    }
                  }
                  JOINT lPinky1
                  {
                    OFFSET 4.9141 -1.269 0.3591
                    CHANNELS 3 Zrotation Xrotation Yrotation
                    JOINT lPinky2
                    {
                      OFFSET 3.1477 -1.685 0.8462
                      CHANNELS 3 Zrotation Xrotation Yrotation
                      JOINT lPinky2_End
                      {
                        OFFSET 0.8055 -1.585 0.7955
                        CHANNELS 3 Zrotation Xrotation Yrotation
                        End Site
                        {
                          OFFSET 0.0081 -0.0158 0.008
                        }
                      }
                    }
                  }
                }
              }
            }
          }
        }
        JOINT rCollar
        {
          OFFSET -1.7069 20.075 5.0056
          CHANNELS 3 Zrotation Xrotation Yrotation
          JOINT rShldr
          {
            OFFSET -13.6458 -0.047 -4.849
            CHANNELS 3 Zrotation Xrotation Yrotation
            JOINT rForeArm
            {
              OFFSET -28.3255 -0.9759 2.2888
              CHANNELS 3 Zrotation Xrotation Yrotation
              JOINT rHand
              {
                OFFSET -22.1583 -0.53 10.8316
                CHANNELS 3 Zrotation Xrotation Yrotation
                JOINT rThumb1
                {
                  OFFSET -0.786 0.112 2.5817
                  CHANNELS 3 Zrotation Xrotation Yrotation
                  JOINT rThumb2
                  {
                    OFFSET -0.3601 -0.878 4.2331
                    CHANNELS 3 Zrotation Xrotation Yrotation
                    JOINT rThumb2_End
                    {
                      OFFSET -1.8127 -1.216 2.2227
                      CHANNELS 3 Zrotation Xrotation Yrotation
                      End Site
                      {
                        OFFSET -0.0181 -0.0122 0.0222
                      }
                    }
                  }
                }
                JOINT rCarpal1
                {
                  OFFSET -0.9571 1.114 1.7695
                  CHANNELS 3 Zrotation Xrotation Yrotation
                  JOINT rIndex1
                  {
                    OFFSET -4.1246 0.487 4.1451
                    CHANNELS 3 Zrotation Xrotation Yrotation
                    JOINT rIndex2
                    {
                      OFFSET -3.4052 -1.454 2.7682
                      CHANNELS 3 Zrotation Xrotation Yrotation
                      JOINT rIndex2_End
                      {
                        OFFSET -1.4531 -1.795 1.2713
                        CHANNELS 3 Zrotation Xrotation Yrotation
                        End Site
                        {
                          OFFSET -0.0145 -0.018 0.0127
                        }
                      }
                    }
                  }
                  JOINT rMid1
                  {
                    OFFSET -5.6954 0.21 2.1184
                    CHANNELS 3 Zrotation Xrotation Yrotation
                    JOINT rMid2
                    {
                      OFFSET -3.9766 -1.54 2.3863
                      CHANNELS 3 Zrotation Xrotation Yrotation
                      JOINT rMid2_End
                      {
                        OFFSET -1.4042 -1.926 1.125
                        CHANNELS 3 Zrotation Xrotation Yrotation
                        End Site
                        {
                          OFFSET -0.014 -0.0193 0.0113
                        }
                      }
                    }
                  }
                }
                JOINT rCarpal2
                {
                  OFFSET -2.0956 0.66 -0.3894
                  CHANNELS 3 Zrotation Xrotation Yrotation
                  JOINT rRing1
                  {
                    OFFSET -5.0395 -0.09 2.4971
                    CHANNELS 3 Zrotation Xrotation Yrotation
                    JOINT rRing2
                    {
                      OFFSET -3.7921 -1.552 1.4806
                      CHANNELS 3 Zrotation Xrotation Yrotation
                      JOINT rRing2_End
                      {
                        OFFSET -1.4655 -1.808 0.9609
                        CHANNELS 3 Zrotation Xrotation Yrotation
                        End Site
                        {
                          OFFSET -0.0147 -0.0181 0.0096
                        }
                      }
                    }
                  }
                  JOINT rPinky1
                  {
                    OFFSET -4.9141 -1.269 0.3592
                    CHANNELS 3 Zrotation Xrotation Yrotation
                    JOINT rPinky2
                    {
                      OFFSET -3.1477 -1.685 0.8462
                      CHANNELS 3 Zrotation Xrotation Yrotation
                      JOINT rPinky2_End
                      {
                        OFFSET -0.8055 -1.585 0.7955
                        CHANNELS 3 Zrotation Xrotation Yrotation
                        End Site
                        {
                          OFFSET -0.0081 -0.0158 0.008
                        }
                      }
                    }
                  }
                }
              }
            }
          }
        }
      }
    }
  }
  JOINT lThigh
  {
    OFFSET 8.367 -8.2066 0.5982
    CHANNELS 3 Zrotation Xrotation Yrotation
    JOINT lShin
    {
      OFFSET 2.1923 -43.463 -0.4932
      CHANNELS 3 Zrotation Xrotation Yrotation
      JOINT lFoot
      {
        OFFSET 0.7333 -45.8593 -2.6451
        CHANNELS 3 Zrotation Xrotation Yrotation
        End Site
        {
          OFFSET 2.6618 -4.2699 12.3931
        }
      }
    }
  }
  JOINT rThigh
  {
    OFFSET -8.367 -8.2066 0.5982
    CHANNELS 3 Zrotation Xrotation Yrotation
    JOINT rShin
    {
      OFFSET -2.1923 -43.463 -0.4931
      CHANNELS 3 Zrotation Xrotation Yrotation
      JOINT rFoot
      {
        OFFSET -0.7333 -45.8593 -2.6451
        CHANNELS 3 Zrotation Xrotation Yrotation
        End Site
        {
          OFFSET -2.6618 -4.2699 12.3931
        }
      }
    }
  }
}
MOTION
Frames:	4
Frame Time:	0.0333333
0 91.7903 2.51682 0 0 -0 0 0 -0 0 0 -0 0 0 -0 0 0 -0 0 0 -0 0 0 -0 1.66051 0.0835086 5.75766 -0.0175111 0.895433 15.7816 7.95139e-016 -1.98785e-016 -0 5.46658e-016 -3.97569e-016 -0 5.96354e-016 0 -0 3.97569e-016 1.98785e-016 9.54166e-015 1.49089e-016 -3.97569e-016 -0 6.4605e-016 0 3.18055e-015 5.96354e-016 0 3.18055e-015 8.94531e-016 -1.98785e-016 6.36111e-015 6.4605e-016 0 3.18055e-015 5.96354e-016 0 3.18055e-015 8.94531e-016 -1.98785e-016 6.36111e-015 1.49089e-016 -3.97569e-016 -0 6.4605e-016 0 3.18055e-015 5.96354e-016 0 3.18055e-015 8.94531e-016 -1.98785e-016 6.36111e-015 6.4605e-016 0 3.18055e-015 5.96354e-016 0 3.18055e-015 8.94531e-016 -1.98785e-016 6.36111e-015 0 0 -0 -1.4496 0.0636048 -5.0245 -1.74811 1.20616 -16.8394 -1.19271e-015 1.98785e-016 -3.18055e-015 -3.97569e-016 1.98785e-016 -3.18055e-015 -2.98177e-016 1.98785e-016 -3.18055e-015 -2.98177e-016 3.97569e-016 -0 4.96962e-016 0 -6.36111e-015 -9.93923e-017 3.97569e-016 -0 -8.94531e-016 5.96354e-016 -0 -3.97569e-016 3.97569e-016 -0 -9.93923e-017 3.97569e-016 -0 -8.94531e-016 5.96354e-016 -0 -3.97569e-016 3.97569e-016 -0 4.96962e-016 0 -6.36111e-015 -9.93923e-017 3.97569e-016 -0 -8.94531e-016 5.96354e-016 -0 -3.97569e-016 3.97569e-016 -0 -9.93923e-017 3.97569e-016 -0 -8.94531e-016 5.96354e-016 -0 -3.97569e-016 3.97569e-016 -0 -4.66111 -0.998717 0.12318 0.00986924 1.54847 0.176523 4.65186 -0.572283 -0.254274 4.66111 -0.998765 -0.123176 -0.00986867 1.54869 -0.176537 -4.65186 -0.572453 0.25427 
42.3222 35.8553 -2.01076 0.215919 -51.9965 -179.545 -0.215526 12.2918 -0.0978568 -0.424193 24.5837 -0.152544 -0.424193 24.5838 -0.152544 -4.32014e-005 -32.9995 -2.35874e-005 2.05168e-007 -15.0017 1.16839e-007 8.10306 -26.669 -47.1459 2.65 -5.4072 -16.9368 -0.150566 -11.1563 11.0205 59.7208 -32.3191 12.9779 -3.18055e-015 -7.95139e-016 -0 -7.7229e-007 1.50966e-006 1.66453e-007 -6.36111e-015 3.97569e-015 -6.36111e-015 -0 -7.95139e-016 -0 -9.54166e-015 -7.95139e-016 2.8625e-014 -7.7229e-007 1.50966e-006 1.66453e-007 -3.18055e-015 1.59028e-015 -6.36111e-015 -9.54166e-015 -7.95139e-016 2.8625e-014 -7.7229e-007 1.50966e-006 1.66453e-007 -3.18055e-015 1.59028e-015 -6.36111e-015 -0 -7.95139e-016 -0 -9.54166e-015 -7.95139e-016 2.8625e-014 -7.7229e-007 1.50966e-006 1.66453e-007 -3.18055e-015 1.59028e-015 -6.36111e-015 -9.54166e-015 -7.95139e-016 2.8625e-014 -7.7229e-007 1.50966e-006 1.66453e-007 -3.18055e-015 1.59028e-015 -6.36111e-015 -4.94838 -24.5265 37.0986 -2.5756 -5.15594 38.7891 -8.29921 -11.9303 -13.4336 -59.4092 -22.6751 -16.8656 7.51305e-007 -3.96909e-007 5.65579e-008 1.11319e-014 -2.14687e-014 1.90833e-014 7.51305e-007 -3.96909e-007 5.65579e-008 -1.59028e-015 -2.38542e-015 -3.18055e-015 7.51305e-007 -3.96909e-007 5.65579e-008 1.11319e-014 -2.06736e-014 1.90833e-014 7.51305e-007 -3.96909e-007 5.65579e-008 7.51305e-007 -3.96909e-007 5.65579e-008 1.11319e-014 -2.06736e-014 1.90833e-014 7.51305e-007 -3.96909e-007 5.65579e-008 -1.59028e-015 -2.38542e-015 -3.18055e-015 7.51305e-007 -3.96909e-007 5.65579e-008 1.11319e-014 -2.06736e-014 1.90833e-014 7.51305e-007 -3.96909e-007 5.65579e-008 7.51305e-007 -3.96909e-007 5.65579e-008 1.11319e-014 -2.06736e-014 1.90833e-014 7.51305e-007 -3.96909e-007 5.65579e-008 146.732 -18.9241 177.546 116.062 72.8318 -112.607 19.5072 3.79541 2.34389 -146.717 -18.9195 -177.553 -115.967 72.8237 112.506 -19.5315 3.8081 -2.35699 
42.3221 35.8397 -1.7572 0.215919 -51.9965 -179.545 -0.216021 12.2698 -0.0974928 -0.425292 24.5398 -0.151752 -0.425292 24.5398 -0.151752 0.0606619 -32.7405 0.01021 -5.92814e-009 -14.4248 5.86454e-008 7.86004 -26.5389 -45.2331 2.66914 -5.41258 -18.975 0.34758 -11.233 10.6124 59.2433 -31.7707 13.0614 -3.18055e-015 -3.97569e-015 -6.36111e-015 -1.59028e-015 0 -1.59028e-014 -1.59028e-015 -7.95139e-016 -6.36111e-015 -3.18055e-015 -7.95139e-016 -0 -7.95139e-015 -2.38542e-015 9.54166e-015 -3.18055e-015 0 -1.27222e-014 -3.18055e-015 -1.59028e-015 -9.54166e-015 -7.95139e-015 -2.38542e-015 9.54166e-015 -3.18055e-015 0 -1.27222e-014 -3.18055e-015 -1.59028e-015 -9.54166e-015 -3.18055e-015 -7.95139e-016 -0 -7.95139e-015 -2.38542e-015 9.54166e-015 -3.18055e-015 0 -1.27222e-014 -3.18055e-015 -1.59028e-015 -9.54166e-015 -7.95139e-015 -2.38542e-015 9.54166e-015 -3.18055e-015 0 -1.27222e-014 -3.18055e-015 -1.59028e-015 -9.54166e-015 -4.71897 -24.5748 35.5833 -2.59519 -5.16983 40.166 -8.44282 -11.9896 -12.7233 -59.0943 -22.1466 -17.0213 2.03222e-006 1.26597e-008 -6.18811e-006 1.20355e-006 -8.86545e-007 -5.95517e-006 1.90572e-007 3.58745e-007 -2.89539e-006 -4.41391e-032 -7.95139e-016 -3.18055e-015 2.03222e-006 1.26597e-008 -6.18811e-006 1.20355e-006 -8.86545e-007 -5.95517e-006 1.90572e-007 3.58745e-007 -2.89539e-006 2.03222e-006 1.26597e-008 -6.18811e-006 1.20355e-006 -8.86545e-007 -5.95517e-006 1.90572e-007 3.58745e-007 -2.89539e-006 -4.41391e-032 -7.95139e-016 -3.18055e-015 2.03222e-006 1.26597e-008 -6.18811e-006 1.20355e-006 -8.86545e-007 -5.95517e-006 1.90572e-007 3.58745e-007 -2.89539e-006 2.03222e-006 1.26597e-008 -6.18811e-006 1.20355e-006 -8.86545e-007 -5.95517e-006 1.90572e-007 3.58745e-007 -2.89539e-006 146.896 -18.9558 177.642 116.063 72.8316 -112.606 19.5363 4.14468 2.42927 -146.882 -18.9521 -177.648 -115.968 72.8235 112.505 -19.5596 4.1564 -2.44174 
42.3221 35.8242 -1.50373 0.215919 -51.9965 -179.545 -0.216368 12.2478 -0.0970479 -0.426101 24.4957 -0.150828 -0.426101 24.4956 -0.150828 0.121111 -32.48 0.0200501 -2.54826e-007 -13.847 8.63524e-008 7.61126 -26.4154 -43.3119 2.68817 -5.41867 -21.0239 0.845581 -11.3133 10.2047 58.7673 -31.2225 13.1498 1.59028e-015 1.59028e-015 -0 5.5036e-007 -6.9498e-007 3.20257e-006 7.81867e-007 -2.0063e-007 2.97709e-006 1.59028e-015 1.59028e-015 -0 -1.59028e-015 7.95139e-016 1.27222e-014 5.5036e-007 -6.9498e-007 3.20257e-006 7.81867e-007 -2.0063e-007 2.97709e-006 -1.59028e-015 7.95139e-016 1.27222e-014 5.5036e-007 -6.9498e-007 3.20257e-006 7.81867e-007 -2.0063e-007 2.97709e-006 1.59028e-015 1.59028e-015 -0 -1.59028e-015 7.95139e-016 1.27222e-014 5.5036e-007 -6.9498e-007 3.20257e-006 7.81867e-007 -2.0063e-007 2.97709e-006 -1.59028e-015 7.95139e-016 1.27222e-014 5.5036e-007 -6.9498e-007 3.20257e-006 7.81867e-007 -2.0063e-007 2.97709e-006 -4.49021 -24.6286 34.0626 -2.61444 -5.18422 41.5461 -8.58577 -12.0507 -12.0125 -58.7789 -21.6185 -17.1797 -2.68792e-006 8.3029e-008 9.36225e-006 1.44971e-006 1.40676e-006 -3.29819e-006 -1.93631e-006 -3.13294e-007 9.41872e-006 1.59028e-015 0 -3.18055e-015 -2.68792e-006 8.3029e-008 9.36225e-006 1.44971e-006 1.40676e-006 -3.29819e-006 -1.93631e-006 -3.13294e-007 9.41872e-006 -2.68792e-006 8.3029e-008 9.36225e-006 1.44971e-006 1.40676e-006 -3.29819e-006 -1.93631e-006 -3.13294e-007 9.41872e-006 1.59028e-015 0 -3.18055e-015 -2.68792e-006 8.3029e-008 9.36225e-006 1.44971e-006 1.40676e-006 -3.29819e-006 -1.93631e-006 -3.13294e-007 9.41872e-006 -2.68792e-006 8.3029e-008 9.36225e-006 1.44971e-006 1.40676e-006 -3.29819e-006 -1.93631e-006 -3.13294e-007 9.41872e-006 147.061 -18.9874 177.738 116.064 72.8313 -112.604 19.565 4.49388 2.51446 -147.047 -18.9843 -177.744 -115.969 72.8232 112.504 -19.5873 4.50464 -2.5263 
